# 3ds Max Wavefront OBJ Exporter v0.97b - (c)2007 guruware
# File Created: 13.12.2013 18:13:10

mtllib Files.mtl

#
# object File1
#

v  -43.1422 0.0000 -20.0000
v  -43.1422 0.0000 20.0000
v  -83.1422 0.0000 20.0000
v  -83.1422 0.0000 -20.0000
v  -43.1422 134.3075 -20.0000
v  -83.1422 134.3075 -20.0000
v  -83.1422 134.3075 20.0000
v  -43.1422 134.3075 20.0000
# 8 vertices

vn 0.0000 -1.0000 -0.0000
vn 0.0000 1.0000 -0.0000
vn 0.0000 0.0000 1.0000
vn 1.0000 0.0000 -0.0000
vn 0.0000 0.0000 -1.0000
vn -1.0000 0.0000 -0.0000
# 6 vertex normals

vt 0.7118 0.7627 0.0000
vt 0.9944 0.7627 0.0000
vt 0.9944 0.9946 0.0000
vt 0.7118 0.9946 0.0000
vt 0.4096 0.7604 0.0000
vt 0.4096 0.9970 0.0000
vt 0.7055 0.9970 0.0000
vt 0.7055 0.7604 0.0000
vt 0.3944 0.9973 0.0000
vt 0.0087 0.9973 0.0000
vt 0.0087 0.0052 0.0000
vt 0.3944 0.0052 0.0000
vt 0.6923 0.7491 0.0000
vt 0.4106 0.7491 0.0000
vt 0.4106 0.0136 0.0000
vt 0.6923 0.0136 0.0000
vt 0.9933 0.7484 0.0000
vt 0.6971 0.7484 0.0000
vt 0.6971 0.0116 0.0000
vt 0.9933 0.0116 0.0000
# 20 texture coords

g File1
usemtl File1
s 2
f 1/1/1 2/2/1 3/3/1 4/4/1 
s 4
f 5/5/2 6/6/2 7/7/2 8/8/2 
s 8
f 8/9/3 7/10/3 3/11/3 2/12/3 
s 16
f 5/13/4 8/14/4 2/15/4 1/16/4 
s 32
f 6/17/5 5/18/5 1/19/5 4/20/5 
s 64
f 7/14/6 6/13/6 4/16/6 3/15/6 
# 6 polygons

#
# object File2
#

v  19.9982 0.0000 -20.0000
v  19.9982 0.0000 20.0000
v  -20.0018 0.0000 20.0000
v  -20.0018 0.0000 -20.0000
v  19.9982 134.3075 -20.0000
v  -20.0018 134.3075 -20.0000
v  -20.0018 134.3075 20.0000
v  19.9982 134.3075 20.0000
# 8 vertices

vn 0.0000 -1.0000 -0.0000
vn 0.0000 1.0000 -0.0000
vn 0.0000 0.0000 1.0000
vn 1.0000 0.0000 -0.0000
vn 0.0000 0.0000 -1.0000
vn -1.0000 0.0000 -0.0000
# 6 vertex normals

vt 0.7118 0.7627 0.0000
vt 0.9944 0.7627 0.0000
vt 0.9944 0.9946 0.0000
vt 0.7118 0.9946 0.0000
vt 0.4096 0.7604 0.0000
vt 0.4096 0.9970 0.0000
vt 0.7055 0.9970 0.0000
vt 0.7055 0.7604 0.0000
vt 0.3944 0.9973 0.0000
vt 0.0087 0.9973 0.0000
vt 0.0087 0.0052 0.0000
vt 0.3944 0.0052 0.0000
vt 0.6923 0.7491 0.0000
vt 0.4106 0.7491 0.0000
vt 0.4106 0.0136 0.0000
vt 0.6923 0.0136 0.0000
vt 0.9933 0.7484 0.0000
vt 0.6971 0.7484 0.0000
vt 0.6971 0.0116 0.0000
vt 0.9933 0.0116 0.0000
# 20 texture coords

g File2
usemtl File2
s 2
f 9/21/7 10/22/7 11/23/7 12/24/7 
s 4
f 13/25/8 14/26/8 15/27/8 16/28/8 
s 8
f 16/29/9 15/30/9 11/31/9 10/32/9 
s 16
f 13/33/10 16/34/10 10/35/10 9/36/10 
s 32
f 14/37/11 13/38/11 9/39/11 12/40/11 
s 64
f 15/34/12 14/33/12 12/36/12 11/35/12 
# 6 polygons

#
# object File3
#

v  85.8132 0.0000 -17.0792
v  85.8132 0.0000 22.9208
v  45.8132 0.0000 22.9208
v  45.8132 0.0000 -17.0792
v  85.8132 69.4647 -17.0792
v  45.8132 69.4647 -17.0792
v  45.8132 69.4647 22.9208
v  85.8132 69.4647 22.9208
# 8 vertices

vn 0.0000 -1.0000 -0.0000
vn 0.0000 1.0000 -0.0000
vn 0.0000 0.0000 1.0000
vn 1.0000 0.0000 -0.0000
vn 0.0000 0.0000 -1.0000
vn -1.0000 0.0000 -0.0000
# 6 vertex normals

vt 0.7118 0.7627 0.0000
vt 0.9944 0.7627 0.0000
vt 0.9944 0.9946 0.0000
vt 0.7118 0.9946 0.0000
vt 0.4096 0.7604 0.0000
vt 0.4096 0.9970 0.0000
vt 0.7055 0.9970 0.0000
vt 0.7055 0.7604 0.0000
vt 0.3904 0.7393 0.0000
vt 0.0087 0.7393 0.0000
vt 0.0087 0.0052 0.0000
vt 0.3904 0.0052 0.0000
vt 0.6923 0.7491 0.0000
vt 0.4106 0.7491 0.0000
vt 0.4106 0.0136 0.0000
vt 0.6923 0.0136 0.0000
vt 0.9933 0.7484 0.0000
vt 0.6971 0.7484 0.0000
vt 0.6971 0.0116 0.0000
vt 0.9933 0.0116 0.0000
# 20 texture coords

g File3
usemtl File3
s 2
f 17/41/13 18/42/13 19/43/13 20/44/13 
s 4
f 21/45/14 22/46/14 23/47/14 24/48/14 
s 8
f 24/49/15 23/50/15 19/51/15 18/52/15 
s 16
f 21/53/16 24/54/16 18/55/16 17/56/16 
s 32
f 22/57/17 21/58/17 17/59/17 20/60/17 
s 64
f 23/54/18 22/53/18 20/56/18 19/55/18 
# 6 polygons

